# xmcd
#
# Track frame offsets:
#	150
#	12545
#	26620
#	41978
#	54315
#	90550
#	92970
#	107530
#	122438
#	138293
#	152443
#
# Disc length: 2363 seconds
#
# Revision: 1
# Processed by: cddbd v1.5.2PL0 Copyright (c) Steve Scherf et al.
# Submitted via: audiograbber 1.83.01
#
DISCID=8309390b
DTITLE=Lone Kellermann and Rockbandet - Før Natten Bli'r Til Dag
DYEAR=1978
DGENRE=Pop Rock
TTITLE0=Dette Er Himmelen Her
TTITLE1=Nina
TTITLE2=Venter På En Sang
TTITLE3=Spring Ud
TTITLE4=Fuglen Er Fløjet
TTITLE5=Månefiskeren
TTITLE6=Vandkunstens Lille Café
TTITLE7=Ryg Dansk
TTITLE8=Se Venedig Og Dø
TTITLE9=Natholdet
TTITLE10=Du Der!
EXTD=
EXTT0=
EXTT1=
EXTT2=
EXTT3=
EXTT4=
EXTT5=
EXTT6=
EXTT7=
EXTT8=
EXTT9=
EXTT10=
PLAYORDER=
